<svg xmlns="http://www.w3.org/2000/svg" xmlns:xlink="http://www.w3.org/1999/xlink" width="512" height="512" version="1.1" viewBox="0 0 64 64"><defs><linearGradient id="a"><stop offset="0" stop-color="#eb3b5a" stop-opacity="1"/><stop offset=".5" stop-color="#e64f97" stop-opacity="1"/><stop offset=".75" stop-color="#b05dbf" stop-opacity="1"/><stop offset="1" stop-color="#526cd0" stop-opacity="1"/></linearGradient><linearGradient xlink:href="#a" id="b" x1="32.093" x2="32.031" y1="-.405" y2="64.53" gradientUnits="userSpaceOnUse" spreadMethod="repeat"/></defs><path d="M64 32a32 32 0 0 1-32 32A32 32 0 0 1 0 32 32 32 0 0 1 32 0a32 32 0 0 1 32 32Z" fill="url(#b)" fill-opacity="1" fill-rule="nonzero" opacity="1"/><path d="m33.94 22.546-3.125 17.5q-.104.52-.47.898-.363.378-.884.482-.534.091-1.016-.117-.468-.21-.742-.657l-6.198-10.182-6.21 10.183q-.222.378-.613.586-.377.208-.82.208-.612 0-1.08-.39-.47-.39-.574-1.016l-3.15-17.5h3.437l2.24 12.331 5.338-8.514q.22-.376.599-.585.39-.208.833-.208.443 0 .82.208.378.21.626.587l5.312 8.518 2.24-12.33zm20.253 18.672h-3.386v-4.583h-11.9v4.583H35.52v-9.336q0-2.044.704-3.763.703-1.719 1.953-2.956 1.25-1.237 2.956-1.927t3.724-.69h7.63q.352 0 .664.13.313.13.547.365.234.241.365.554.13.312.13.664zm-15.287-7.969h11.901v-7.318h-5.95q-.156 0-.664.053-.495.04-1.16.22-.65.183-1.38.56-.728.378-1.34 1.042-.612.664-1.016 1.667-.39.99-.39 2.41z" fill="#fff" fill-opacity="1"/></svg>