<svg xmlns="http://www.w3.org/2000/svg" xml:space="preserve" width="2560" height="2560" version="1.1" viewBox="0 0 677.333 677.333"><g stroke-width=".265"><path d="M677.334 338.667a338.667 338.667 0 0 1-338.667 338.667A338.667 338.667 0 0 1 0 338.667 338.667 338.667 0 0 1 338.667 0a338.667 338.667 0 0 1 338.667 338.667Z" fill="#eb3b5a"/><path d="M115.32 445.347a1028.667 1028.667 0 0 1-6.093-26.413l-9.147-37.254-10.16-42.666-27.433-65.4 67.4-51.447 48.086 233h-60.28zm53.173-106.68 25.4-66.64 69.427-49.86 55.54 233h-57.913l-2.707-11.173-7.113-29.467-10.16-43a3339.135 3339.135 0 0 1-12.194-51.134h-2.033l-11.487 51.134-3.726 17.273c-1.134 4.74-2.26 9.26-3.387 13.547a540.467 540.467 0 0 1-2.707 12.2l-6.773 29.467-2.707 11.166h-3.733zm136.82-2.027 20.32-71.733 67.4-42.734L365.268 339l-10.173 42.667c-4.294 17.393-7.227 29.813-8.807 37.267l-6.433 26.406-2.374 9.827h-4.066zm152.4-114.467h5.76l26.754 92.8-38.947 140.2h-67.733zm76.2 191.68h-56.56L491.58 361.7h27.094l-39.96-106.293 61.973-33.24 74.167 233h-69.087z" fill="#fff"/></g></svg>