<?xml version="1.0" encoding="UTF-8" standalone="no"?>
<svg
   xml:space="preserve"
   width="2560"
   height="2560"
   version="1.1"
   viewBox="0 0 677.33333 677.33333"
   id="svg8"
   sodipodi:docname="Wiryawan Adipa.svg"
   inkscape:version="1.2.1 (9c6d41e410, 2022-07-14)"
   xmlns:inkscape="http://www.inkscape.org/namespaces/inkscape"
   xmlns:sodipodi="http://sodipodi.sourceforge.net/DTD/sodipodi-0.dtd"
   xmlns="http://www.w3.org/2000/svg"
   xmlns:svg="http://www.w3.org/2000/svg"><defs
     id="defs12" /><sodipodi:namedview
     id="namedview10"
     pagecolor="#505050"
     bordercolor="#eeeeee"
     borderopacity="1"
     inkscape:showpageshadow="0"
     inkscape:pageopacity="0"
     inkscape:pagecheckerboard="0"
     inkscape:deskcolor="#505050"
     showgrid="false"
     inkscape:zoom="0.3343099"
     inkscape:cx="1286.2317"
     inkscape:cy="861.47613"
     inkscape:window-width="2560"
     inkscape:window-height="1377"
     inkscape:window-x="1072"
     inkscape:window-y="476"
     inkscape:window-maximized="1"
     inkscape:current-layer="svg8" /><g
     stroke-width="0.265"
     id="g6"
     inkscape:export-filename="g6.svg"
     inkscape:export-xdpi="640"
     inkscape:export-ydpi="640"
     transform="scale(6.6666667)"><path
       d="M 101.6,50.8 A 50.8,50.8 0 0 1 50.8,101.6 50.8,50.8 0 0 1 0,50.8 50.8,50.8 0 0 1 50.8,0 50.8,50.8 0 0 1 101.6,50.8 Z"
       fill="#eb3b5a"
       id="path2"
       inkscape:export-filename="path2.png"
       inkscape:export-xdpi="19.200001"
       inkscape:export-ydpi="19.200001" /><path
       d="m 60.008,135.055 c -0.236667,-0.948 -0.541333,-2.26867 -0.914,-3.962 l -1.372,-5.588 -1.524,-6.4 -4.115,-9.81054 10.11,-7.71646 7.213,34.95 h -9.042 z m 7.976,-16.002 3.81,-9.99597 10.414,-7.47903 8.331,34.95 h -8.687 l -0.406,-1.676 -1.067,-4.42 -1.524,-6.45 c -0.643333,-2.60867 -1.253,-5.16533 -1.829,-7.67 h -0.305 l -1.724,7.67 -0.559,2.591 c -0.169333,0.71133 -0.338667,1.38867 -0.508,2.032 -0.135333,0.64333 -0.270667,1.25333 -0.406,1.83 l -1.016,4.42 -0.406,1.675 h -0.56 z m 20.523,-0.304 3.048,-10.75941 10.11,-6.41059 -4.165,17.525 -1.526,6.4 c -0.644,2.60867 -1.084333,4.472 -1.321,5.59 l -0.965,3.961 -0.356,1.474 h -0.61 z m 22.86,-17.17 h 0.864 l 4.013,13.92 -5.842,21.03 h -10.16 z m 11.43,28.752 h -8.484 l 2.134,-7.823 h 4.064 l -5.994,-15.94398 9.296,-4.98602 11.125,34.95 h -10.363 z"
       fill="#ffffff"
       transform="translate(-42.71,-68.253)"
       id="path4"
       sodipodi:nodetypes="cccccccccccccccccccccccccccccccccccccccccccccccccccc" /></g></svg>
