<svg xmlns="http://www.w3.org/2000/svg" viewBox="0 0 512 512" xmlns:v="https://vecta.io/nano"><path d="M502.6 70.63L441.35 9.38C435.4 3.371 427.2 0 418.7 0H255.1c-35.35 0-64 28.66-64 64l.019 256C192 355.4 220.7 384 256 384h192c35.2 0 64-28.8 64-64V93.25c0-8.48-3.4-16.62-9.4-22.62zM464 320c0 8.836-7.164 16-16 16H255.1c-8.838 0-16-7.164-16-16V64.13c0-8.836 7.164-16 16-16h128L384 96c0 17.67 14.33 32 32 32h47.1v192zM272 448c0 8.836-7.164 16-16 16H63.1c-8.838 0-16-7.164-16-16l.88-255.9c0-8.836 7.164-16 16-16H160V128H63.99c-35.35 0-64 28.65-64 64L0 448c.002 35.3 28.66 64 64 64h192c35.2 0 64-28.8 64-64v-32h-47.1l-.9 32z"/></svg>